<svg id="Layer_1" data-name="Layer 1" xmlns="http://www.w3.org/2000/svg" viewBox="0 0 266 40">
    <defs>
        <style>
            .cls-1{fill:none;}.cls-2,.cls-4{fill:#00247d;}.cls-3{clip-path:url(#clip-path);}.cls-4,.cls-5{fill-rule:evenodd;}.cls-5{fill:#f59900;}
        </style>
        <clipPath id="clip-path">
            <rect class="cls-1" x="0.74" y="1" width="32.13" height="38"/>
        </clipPath>
    </defs>
    <title>edu-id-button-transparent</title>
    <path class="cls-2"
          d="M42.81,15.39c0-6.21,2.85-6.77,8.59-6.77,5,0,8.65.22,8.37,6.55H57.14C57,11.11,56.24,11,51.31,11c-5.15,0-5.87.65-5.87,3.88,0,4.43,2.11,4.06,6.45,4.19,5.53.31,8.32.15,8.32,6.45,0,6.57-3.1,6.79-9,6.79s-9-.71-8.5-7.44h2.64c-.06,5.11.93,5.11,5.86,5.11s6.33,0,6.33-4.56-2-3.69-6.23-4C46.75,21,42.81,21.53,42.81,15.39Z"/>
    <path class="cls-2"
          d="M89.12,32.08h-4L79,11.14H79L72.8,32.08H68.86L61.73,8.81h2.7l6.32,21.25h.07L77.08,8.81H81l6.2,21.25h.07L93.71,8.81h2.73Z"/>
    <path class="cls-2" d="M101.83,32.08H99.2V8.81h2.63Z"/>
    <path class="cls-2" d="M114.8,32.08h-2.64V11.14h-7.54V8.81h17.72v2.33H114.8Z"/>
    <path class="cls-2"
          d="M131.08,32.26c-4.25,0-6.76-2.67-6.76-7.32v-9c0-6.57,4.06-7.32,9.71-7.32h2.17c4.87,0,6.36,2.11,6.36,6.7v.75h-2.64v-.65c0-3.26-.68-4.47-4.09-4.47h-1.49c-5.46,0-7.38.65-7.38,4.9v6.39c0,5.31.21,7.69,4.62,7.69h3.13c4.22,0,5.52-.58,5.52-3.9V24.17h2.64v2.17c0,5.33-3.41,5.92-8.07,5.92Z"/>
    <path class="cls-2" d="M165.11,32.08h-2.64V21.37H148.85V32.08h-2.63V8.81h2.63V19.05h13.62V8.81h2.64Z"/>
    <path class="cls-2"
          d="M188.21,26.89c0,5.12-2.94,5.37-7.6,5.37-6.23,0-7.51-2-7.51-8.28,0-5.83.94-8.38,7.51-8.38s7.6,2,7.6,9.06H177c0,3.51.1,4.62,3.6,4.62,2.17,0,3.69,0,3.69-2.39Zm-3.91-4.71c0-3.35-.49-3.6-3.69-3.6-3.38,0-3.6.71-3.6,3.6Z"/>
    <path class="cls-2"
          d="M202.2,29.62h-.12c-1,2.15-2.8,2.64-5.09,2.64-6.05,0-6.24-3.81-6.24-8.81,0-4.78.65-7.85,6.24-7.85,2,0,4.06.38,4.9,2.36h.16V8.81H206V32.08h-3.9Zm-7.54-6.17c0,3.69-.09,5.83,3.48,5.83,4,0,3.84-2,3.84-5.83,0-3.47-.46-4.87-3.84-4.87C195.44,18.58,194.66,19.36,194.66,23.45Z"/>
    <path class="cls-2"
          d="M220.53,32.08V29.56h-.12c-.9,2.17-2.92,2.7-5.15,2.7-3.26,0-5.43-1.12-5.46-4.68V15.79h3.91V26.06c0,2.32.21,3.22,2.73,3.22,3,0,4-1.27,4-4.09v-9.4h3.91V32.08Z"/>
    <path class="cls-2" d="M234.52,22v3h-8.25V22Z"/>
    <path class="cls-2" d="M241,32.08h-4.46V8.81H241Z"/>
    <path class="cls-2"
          d="M245,8.81h11.11c6.42,0,9.15,2.33,9.15,8.65V23c0,4.83-1.37,9.12-8.41,9.12H245Zm11.85,19.45c3,0,3.94-2.7,3.94-5.3v-5.5c0-3.87-1.27-4.83-4.68-4.83h-6.64V28.26Z"/>
    <g class="cls-3">
        <polygon class="cls-4" points="0.74 39 32.87 20 17.95 20 0.74 29.91 0.74 39"/>
        <polygon class="cls-5" points="0.74 1 32.87 20 17.95 20 0.74 10.09 0.74 1"/>
    </g>
</svg>